<svg width="39" height="25" viewBox="0 0 39 25" fill="none" xmlns="http://www.w3.org/2000/svg">
<path d="M34.715 16.3623L34.6939 16.3427C34.3609 16.0347 33.3409 15.0401 32.997 14.6055C32.5932 14.0632 32.6863 13.7078 32.9889 13.1753C33.3713 12.5025 34.1375 11.4703 34.9483 10.3774C37.5453 6.87796 39.2219 4.45537 38.8768 2.73457L38.6908 1.81544L29.1 1.81962C29.0664 1.91025 28.5659 4.11312 26.4539 7.86417C24.9224 10.584 23.9179 11.4384 23.5641 11.5893L23.5094 11.5726C23.3942 11.4301 23.1931 11.0455 23.1104 10.0542C23.0241 9.01585 23.1005 7.75864 23.1746 6.54287C23.2612 5.11722 23.3359 3.88595 23.1571 3.00498L22.8658 1.56979C22.5138 1.51344 21.2251 1.01527 17.6346 0.977404C14.5261 0.945504 13.613 1.39538 13.1646 1.79189L11.6813 3.10336L13.5561 3.73539C14.2696 3.97598 14.5065 4.25354 14.7008 5.6294C14.8275 6.52617 14.8939 8.03321 14.757 9.37867C14.5604 11.3079 14.0887 11.6668 14.0643 11.6859C13.9831 11.6582 13.2943 11.3562 12.0984 8.82296C11.2689 7.06608 10.5417 4.98783 10.0103 3.47036C9.40208 1.73256 9.51158 2.10254 9.20302 1.28149L-0.0756836 1.2812L0.524766 2.83743C3.02803 9.33156 5.32479 14.403 8.39845 18.0456C11.7944 22.07 16.0148 24.1772 21.6997 24.1772H22.8423V23.0324C22.8423 21.9621 22.9306 21.1914 23.1202 20.6071C23.2359 20.2511 23.3898 19.9569 23.5513 19.6483C23.7911 19.194 24.0256 18.9993 24.1536 18.9704C24.2696 18.9438 24.4737 19.0291 24.6999 19.1981C25.3491 19.6832 25.8645 20.3206 26.4102 20.9955C27.1975 21.9695 28.0116 22.9763 29.3032 23.6355C30.009 23.9956 31.3027 24.1775 32.0148 24.1775C32.2031 24.1775 38.9161 24.1772 38.9244 24.1772L38.8753 22.9853C38.8021 21.203 37.4021 18.9745 34.715 16.3623ZM32.0591 21.8875H32.0406C31.5497 21.8956 30.6127 21.7343 30.3402 21.5954C29.4814 21.1571 28.8813 20.4145 28.1859 19.5547C27.5756 18.7995 26.9446 18.0187 26.0659 17.3626C25.3554 16.8316 24.71 16.6763 24.1976 16.6763C23.9929 16.6763 23.809 16.701 23.6513 16.7368C23.0565 16.8709 22.2058 17.2996 21.5295 18.5813C21.3388 18.9459 21.1225 19.3588 20.9472 19.899C20.7636 20.4643 20.6494 21.0924 20.5949 21.8565C16.3108 21.6127 12.9679 19.9145 10.1436 16.5674C7.51771 13.4553 5.45185 9.1023 3.26398 3.56993C3.42228 3.56993 7.38888 3.57053 7.62304 3.57053C7.69475 3.77236 7.77212 3.99357 7.85424 4.2279C8.42702 5.86492 9.21165 8.10655 10.1361 10.0182C11.4599 12.7556 12.6688 13.9764 14.0557 13.9764C14.7481 13.9764 15.3691 13.6825 15.8514 13.1258C16.539 12.3325 16.9383 11.0231 17.0722 9.12258C17.1779 7.62388 17.0797 6.13115 16.9636 5.30862C16.8678 4.63186 16.7313 3.92142 16.398 3.28492C17.8182 3.22082 19.7198 3.32219 20.9246 3.4954C21.0341 4.09285 20.9627 5.26718 20.8936 6.40334C20.7267 9.14792 20.5544 11.9801 22.0044 13.3053C22.2594 13.5385 22.5298 13.6634 22.5376 13.6684L23.2755 13.8953C23.5603 13.8074 25.2096 14.6457 28.3326 9.18488C29.3333 7.43517 30.2649 5.41892 30.7665 4.10209C31.93 4.0997 35.8936 4.10418 36.3592 4.10477C35.6996 5.55934 34.1363 7.63402 33.1145 9.01108C32.2236 10.2113 31.4545 11.2479 31.0031 12.0421C30.1646 13.5176 30.3056 14.8326 31.1789 15.9927L31.1926 16.0105C31.68 16.6321 32.8836 17.7829 33.1332 18.0149C34.9417 19.7741 35.8132 21.0379 36.228 21.8873H32.0591V21.8875Z" fill="white"/>
</svg>
